<mxfile host="app.diagrams.net" modified="2023-05-27T14:19:29.940Z" agent="Mozilla/5.0 (Macintosh; Intel Mac OS X 10_15_7) AppleWebKit/605.1.15 (KHTML, like Gecko) Version/16.5 Safari/605.1.15" etag="bCMRp0OHK3Hy2Q25Wppk" version="21.3.4" type="device">
  <diagram name="Страница 1" id="J-LM8DyisIbFQanWL7IZ">
    <mxGraphModel dx="838" dy="545" grid="1" gridSize="10" guides="1" tooltips="1" connect="1" arrows="1" fold="1" page="1" pageScale="1" pageWidth="827" pageHeight="1169" math="0" shadow="0">
      <root>
        <mxCell id="0" />
        <mxCell id="1" parent="0" />
        <mxCell id="c_uRB4ZBNlb_spwsg5lv-1" value="" style="ellipse;whiteSpace=wrap;html=1;aspect=fixed;fillColor=#ffaa00;" parent="1" vertex="1">
          <mxGeometry x="210" y="160" width="80" height="80" as="geometry" />
        </mxCell>
      </root>
    </mxGraphModel>
  </diagram>
</mxfile>
